<mxfile host="app.diagrams.net" modified="2023-09-09T02:46:23.460Z" agent="Mozilla/5.0 (Windows NT 10.0; Win64; x64) AppleWebKit/537.36 (KHTML, like Gecko) Chrome/116.0.0.0 Safari/537.36 Edg/116.0.1938.69" etag="xfFrEtD01wTdS8EXV3V-" version="21.7.3" type="google">
  <diagram name="Page-1" id="XhqFYW5zMPVVii7psD0Y">
    <mxGraphModel dx="1426" dy="785" grid="1" gridSize="10" guides="1" tooltips="1" connect="1" arrows="1" fold="1" page="1" pageScale="1" pageWidth="850" pageHeight="1100" math="0" shadow="0">
      <root>
        <mxCell id="0" />
        <mxCell id="1" parent="0" />
        <mxCell id="t-qBr2brpTRXq5mTuHNO-3" value="CARTA" style="swimlane;fontStyle=0;childLayout=stackLayout;horizontal=1;startSize=30;horizontalStack=0;resizeParent=1;resizeParentMax=0;resizeLast=0;collapsible=1;marginBottom=0;whiteSpace=wrap;html=1;" parent="1" vertex="1">
          <mxGeometry x="670" y="140" width="120" height="170" as="geometry" />
        </mxCell>
        <mxCell id="t-qBr2brpTRXq5mTuHNO-4" value="PINTA : STR" style="text;strokeColor=none;fillColor=none;align=left;verticalAlign=middle;spacingLeft=4;spacingRight=4;overflow=hidden;points=[[0,0.5],[1,0.5]];portConstraint=eastwest;rotatable=0;whiteSpace=wrap;html=1;" parent="t-qBr2brpTRXq5mTuHNO-3" vertex="1">
          <mxGeometry y="30" width="120" height="30" as="geometry" />
        </mxCell>
        <mxCell id="t-qBr2brpTRXq5mTuHNO-5" value="VALOR : STR" style="text;strokeColor=none;fillColor=none;align=left;verticalAlign=middle;spacingLeft=4;spacingRight=4;overflow=hidden;points=[[0,0.5],[1,0.5]];portConstraint=eastwest;rotatable=0;whiteSpace=wrap;html=1;" parent="t-qBr2brpTRXq5mTuHNO-3" vertex="1">
          <mxGeometry y="60" width="120" height="40" as="geometry" />
        </mxCell>
        <mxCell id="t-qBr2brpTRXq5mTuHNO-6" value="tapada : bool" style="text;strokeColor=none;fillColor=none;align=left;verticalAlign=middle;spacingLeft=4;spacingRight=4;overflow=hidden;points=[[0,0.5],[1,0.5]];portConstraint=eastwest;rotatable=0;whiteSpace=wrap;html=1;" parent="t-qBr2brpTRXq5mTuHNO-3" vertex="1">
          <mxGeometry y="100" width="120" height="30" as="geometry" />
        </mxCell>
        <mxCell id="Q7EOQcDBemOvYrqtxiTg-11" value="" style="rounded=0;whiteSpace=wrap;html=1;" vertex="1" parent="t-qBr2brpTRXq5mTuHNO-3">
          <mxGeometry y="130" width="120" height="10" as="geometry" />
        </mxCell>
        <mxCell id="t-qBr2brpTRXq5mTuHNO-46" value="method(type):type" style="text;strokeColor=none;fillColor=none;align=left;verticalAlign=middle;spacingLeft=4;spacingRight=4;overflow=hidden;points=[[0,0.5],[1,0.5]];portConstraint=eastwest;rotatable=0;whiteSpace=wrap;html=1;" parent="t-qBr2brpTRXq5mTuHNO-3" vertex="1">
          <mxGeometry y="140" width="120" height="30" as="geometry" />
        </mxCell>
        <mxCell id="t-qBr2brpTRXq5mTuHNO-7" value="JUGADOR" style="swimlane;fontStyle=0;childLayout=stackLayout;horizontal=1;startSize=30;horizontalStack=0;resizeParent=1;resizeParentMax=0;resizeLast=0;collapsible=1;marginBottom=0;whiteSpace=wrap;html=1;" parent="1" vertex="1">
          <mxGeometry x="350" y="170" width="170" height="270" as="geometry" />
        </mxCell>
        <mxCell id="t-qBr2brpTRXq5mTuHNO-8" value="fichas : str" style="text;strokeColor=none;fillColor=none;align=left;verticalAlign=middle;spacingLeft=4;spacingRight=4;overflow=hidden;points=[[0,0.5],[1,0.5]];portConstraint=eastwest;rotatable=0;whiteSpace=wrap;html=1;" parent="t-qBr2brpTRXq5mTuHNO-7" vertex="1">
          <mxGeometry y="30" width="170" height="30" as="geometry" />
        </mxCell>
        <mxCell id="t-qBr2brpTRXq5mTuHNO-9" value="nombre : str" style="text;strokeColor=none;fillColor=none;align=left;verticalAlign=middle;spacingLeft=4;spacingRight=4;overflow=hidden;points=[[0,0.5],[1,0.5]];portConstraint=eastwest;rotatable=0;whiteSpace=wrap;html=1;" parent="t-qBr2brpTRXq5mTuHNO-7" vertex="1">
          <mxGeometry y="60" width="170" height="30" as="geometry" />
        </mxCell>
        <mxCell id="Q7EOQcDBemOvYrqtxiTg-10" value="" style="rounded=0;whiteSpace=wrap;html=1;" vertex="1" parent="t-qBr2brpTRXq5mTuHNO-7">
          <mxGeometry y="90" width="170" height="10" as="geometry" />
        </mxCell>
        <mxCell id="t-qBr2brpTRXq5mTuHNO-40" value="__init__(nombre:str,fichas:int" style="text;strokeColor=none;fillColor=none;align=center;verticalAlign=middle;spacingLeft=4;spacingRight=4;overflow=hidden;points=[[0,0.5],[1,0.5]];portConstraint=eastwest;rotatable=0;whiteSpace=wrap;html=1;labelPosition=center;verticalLabelPosition=middle;" parent="t-qBr2brpTRXq5mTuHNO-7" vertex="1">
          <mxGeometry y="100" width="170" height="50" as="geometry" />
        </mxCell>
        <mxCell id="t-qBr2brpTRXq5mTuHNO-10" value="inicializar_mano(cartas)" style="text;strokeColor=none;fillColor=none;align=left;verticalAlign=middle;spacingLeft=4;spacingRight=4;overflow=hidden;points=[[0,0.5],[1,0.5]];portConstraint=eastwest;rotatable=0;whiteSpace=wrap;html=1;" parent="t-qBr2brpTRXq5mTuHNO-7" vertex="1">
          <mxGeometry y="150" width="170" height="30" as="geometry" />
        </mxCell>
        <mxCell id="Q7EOQcDBemOvYrqtxiTg-13" value="pedir_carta()" style="text;html=1;align=center;verticalAlign=middle;resizable=0;points=[];autosize=1;strokeColor=none;fillColor=none;" vertex="1" parent="t-qBr2brpTRXq5mTuHNO-7">
          <mxGeometry y="180" width="170" height="30" as="geometry" />
        </mxCell>
        <mxCell id="Q7EOQcDBemOvYrqtxiTg-14" value="jugador_planta()" style="text;html=1;align=center;verticalAlign=middle;resizable=0;points=[];autosize=1;strokeColor=none;fillColor=none;" vertex="1" parent="t-qBr2brpTRXq5mTuHNO-7">
          <mxGeometry y="210" width="170" height="30" as="geometry" />
        </mxCell>
        <mxCell id="Q7EOQcDBemOvYrqtxiTg-25" value="def exit()" style="text;html=1;align=center;verticalAlign=middle;resizable=0;points=[];autosize=1;strokeColor=none;fillColor=none;" vertex="1" parent="t-qBr2brpTRXq5mTuHNO-7">
          <mxGeometry y="240" width="170" height="30" as="geometry" />
        </mxCell>
        <mxCell id="t-qBr2brpTRXq5mTuHNO-51" style="edgeStyle=orthogonalEdgeStyle;rounded=0;orthogonalLoop=1;jettySize=auto;html=1;entryX=-0.014;entryY=0.233;entryDx=0;entryDy=0;entryPerimeter=0;endArrow=open;endFill=0;" parent="1" source="t-qBr2brpTRXq5mTuHNO-11" target="t-qBr2brpTRXq5mTuHNO-17" edge="1">
          <mxGeometry relative="1" as="geometry" />
        </mxCell>
        <mxCell id="t-qBr2brpTRXq5mTuHNO-11" value="blackjack" style="swimlane;fontStyle=0;childLayout=stackLayout;horizontal=1;startSize=30;horizontalStack=0;resizeParent=1;resizeParentMax=0;resizeLast=0;collapsible=1;marginBottom=0;whiteSpace=wrap;html=1;" parent="1" vertex="1">
          <mxGeometry x="70" y="170" width="170" height="370" as="geometry" />
        </mxCell>
        <mxCell id="t-qBr2brpTRXq5mTuHNO-12" value="field: type" style="text;strokeColor=none;fillColor=none;align=left;verticalAlign=middle;spacingLeft=4;spacingRight=4;overflow=hidden;points=[[0,0.5],[1,0.5]];portConstraint=eastwest;rotatable=0;whiteSpace=wrap;html=1;" parent="t-qBr2brpTRXq5mTuHNO-11" vertex="1">
          <mxGeometry y="30" width="170" height="30" as="geometry" />
        </mxCell>
        <mxCell id="Q7EOQcDBemOvYrqtxiTg-8" value="" style="rounded=0;whiteSpace=wrap;html=1;" vertex="1" parent="t-qBr2brpTRXq5mTuHNO-11">
          <mxGeometry y="60" width="170" height="10" as="geometry" />
        </mxCell>
        <mxCell id="t-qBr2brpTRXq5mTuHNO-13" value="registrar_jugador(nombre:str)" style="text;strokeColor=none;fillColor=none;align=left;verticalAlign=middle;spacingLeft=4;spacingRight=4;overflow=hidden;points=[[0,0.5],[1,0.5]];portConstraint=eastwest;rotatable=0;whiteSpace=wrap;html=1;" parent="t-qBr2brpTRXq5mTuHNO-11" vertex="1">
          <mxGeometry y="70" width="170" height="30" as="geometry" />
        </mxCell>
        <mxCell id="t-qBr2brpTRXq5mTuHNO-42" value="iniciar_juego(apuesta:int)" style="text;strokeColor=none;fillColor=none;align=left;verticalAlign=middle;spacingLeft=4;spacingRight=4;overflow=hidden;points=[[0,0.5],[1,0.5]];portConstraint=eastwest;rotatable=0;whiteSpace=wrap;html=1;" parent="t-qBr2brpTRXq5mTuHNO-11" vertex="1">
          <mxGeometry y="100" width="170" height="30" as="geometry" />
        </mxCell>
        <mxCell id="Q7EOQcDBemOvYrqtxiTg-12" value="jugada_jugador()" style="text;html=1;align=center;verticalAlign=middle;resizable=0;points=[];autosize=1;strokeColor=none;fillColor=none;" vertex="1" parent="t-qBr2brpTRXq5mTuHNO-11">
          <mxGeometry y="130" width="170" height="30" as="geometry" />
        </mxCell>
        <mxCell id="Q7EOQcDBemOvYrqtxiTg-18" value="mostrar ganador()" style="text;html=1;align=center;verticalAlign=middle;resizable=0;points=[];autosize=1;strokeColor=none;fillColor=none;" vertex="1" parent="t-qBr2brpTRXq5mTuHNO-11">
          <mxGeometry y="160" width="170" height="30" as="geometry" />
        </mxCell>
        <mxCell id="Q7EOQcDBemOvYrqtxiTg-22" value="doblar fichas()" style="text;html=1;align=center;verticalAlign=middle;resizable=0;points=[];autosize=1;strokeColor=none;fillColor=none;" vertex="1" parent="t-qBr2brpTRXq5mTuHNO-11">
          <mxGeometry y="190" width="170" height="30" as="geometry" />
        </mxCell>
        <mxCell id="Q7EOQcDBemOvYrqtxiTg-20" value="menu()" style="text;html=1;align=center;verticalAlign=middle;resizable=0;points=[];autosize=1;strokeColor=none;fillColor=none;" vertex="1" parent="t-qBr2brpTRXq5mTuHNO-11">
          <mxGeometry y="220" width="170" height="30" as="geometry" />
        </mxCell>
        <mxCell id="Q7EOQcDBemOvYrqtxiTg-23" value="def restar fichas()" style="text;html=1;align=center;verticalAlign=middle;resizable=0;points=[];autosize=1;strokeColor=none;fillColor=none;" vertex="1" parent="t-qBr2brpTRXq5mTuHNO-11">
          <mxGeometry y="250" width="170" height="30" as="geometry" />
        </mxCell>
        <mxCell id="Q7EOQcDBemOvYrqtxiTg-24" value="def devolver fichas()" style="text;html=1;align=center;verticalAlign=middle;resizable=0;points=[];autosize=1;strokeColor=none;fillColor=none;" vertex="1" parent="t-qBr2brpTRXq5mTuHNO-11">
          <mxGeometry y="280" width="170" height="30" as="geometry" />
        </mxCell>
        <mxCell id="Q7EOQcDBemOvYrqtxiTg-19" value="fichas_disponibles()" style="text;html=1;align=center;verticalAlign=middle;resizable=0;points=[];autosize=1;strokeColor=none;fillColor=none;" vertex="1" parent="t-qBr2brpTRXq5mTuHNO-11">
          <mxGeometry y="310" width="170" height="30" as="geometry" />
        </mxCell>
        <mxCell id="Q7EOQcDBemOvYrqtxiTg-26" value="def contar fichas disponibles()" style="text;html=1;align=center;verticalAlign=middle;resizable=0;points=[];autosize=1;strokeColor=none;fillColor=none;" vertex="1" parent="t-qBr2brpTRXq5mTuHNO-11">
          <mxGeometry y="340" width="170" height="30" as="geometry" />
        </mxCell>
        <mxCell id="t-qBr2brpTRXq5mTuHNO-16" value="Casa" style="swimlane;fontStyle=0;childLayout=stackLayout;horizontal=1;startSize=30;horizontalStack=0;resizeParent=1;resizeParentMax=0;resizeLast=0;collapsible=1;marginBottom=0;whiteSpace=wrap;html=1;" parent="1" vertex="1">
          <mxGeometry x="210" y="20" width="160" height="90" as="geometry" />
        </mxCell>
        <mxCell id="t-qBr2brpTRXq5mTuHNO-17" value="inicializar_mano(cartas)&lt;br&gt;destapar_casa()&lt;br&gt;calcular_manocasa()" style="text;strokeColor=none;fillColor=none;align=left;verticalAlign=middle;spacingLeft=4;spacingRight=4;overflow=hidden;points=[[0,0.5],[1,0.5]];portConstraint=eastwest;rotatable=0;whiteSpace=wrap;html=1;" parent="t-qBr2brpTRXq5mTuHNO-16" vertex="1">
          <mxGeometry y="30" width="160" height="60" as="geometry" />
        </mxCell>
        <mxCell id="t-qBr2brpTRXq5mTuHNO-21" value="Mano" style="swimlane;fontStyle=0;childLayout=stackLayout;horizontal=1;startSize=30;horizontalStack=0;resizeParent=1;resizeParentMax=0;resizeLast=0;collapsible=1;marginBottom=0;whiteSpace=wrap;html=1;" parent="1" vertex="1">
          <mxGeometry x="510" y="35" width="140" height="150" as="geometry" />
        </mxCell>
        <mxCell id="t-qBr2brpTRXq5mTuHNO-22" value="__init__(cartas)" style="text;strokeColor=none;fillColor=none;align=left;verticalAlign=middle;spacingLeft=4;spacingRight=4;overflow=hidden;points=[[0,0.5],[1,0.5]];portConstraint=eastwest;rotatable=0;whiteSpace=wrap;html=1;" parent="t-qBr2brpTRXq5mTuHNO-21" vertex="1">
          <mxGeometry y="30" width="140" height="30" as="geometry" />
        </mxCell>
        <mxCell id="t-qBr2brpTRXq5mTuHNO-43" value="es_blackjack()-&amp;gt;bool" style="text;strokeColor=none;fillColor=none;align=left;verticalAlign=middle;spacingLeft=4;spacingRight=4;overflow=hidden;points=[[0,0.5],[1,0.5]];portConstraint=eastwest;rotatable=0;whiteSpace=wrap;html=1;" parent="t-qBr2brpTRXq5mTuHNO-21" vertex="1">
          <mxGeometry y="60" width="140" height="30" as="geometry" />
        </mxCell>
        <mxCell id="Q7EOQcDBemOvYrqtxiTg-17" value="comparar_mano()" style="text;html=1;align=center;verticalAlign=middle;resizable=0;points=[];autosize=1;strokeColor=none;fillColor=none;" vertex="1" parent="t-qBr2brpTRXq5mTuHNO-21">
          <mxGeometry y="90" width="140" height="30" as="geometry" />
        </mxCell>
        <mxCell id="Q7EOQcDBemOvYrqtxiTg-21" value="valor()" style="text;html=1;align=center;verticalAlign=middle;resizable=0;points=[];autosize=1;strokeColor=none;fillColor=none;" vertex="1" parent="t-qBr2brpTRXq5mTuHNO-21">
          <mxGeometry y="120" width="140" height="30" as="geometry" />
        </mxCell>
        <mxCell id="t-qBr2brpTRXq5mTuHNO-26" value="Baraja" style="swimlane;fontStyle=0;childLayout=stackLayout;horizontal=1;startSize=30;horizontalStack=0;resizeParent=1;resizeParentMax=0;resizeLast=0;collapsible=1;marginBottom=0;whiteSpace=wrap;html=1;" parent="1" vertex="1">
          <mxGeometry x="360" y="450" width="140" height="90" as="geometry" />
        </mxCell>
        <mxCell id="t-qBr2brpTRXq5mTuHNO-27" value="revolver()" style="text;strokeColor=none;fillColor=none;align=left;verticalAlign=middle;spacingLeft=4;spacingRight=4;overflow=hidden;points=[[0,0.5],[1,0.5]];portConstraint=eastwest;rotatable=0;whiteSpace=wrap;html=1;" parent="t-qBr2brpTRXq5mTuHNO-26" vertex="1">
          <mxGeometry y="30" width="140" height="30" as="geometry" />
        </mxCell>
        <mxCell id="t-qBr2brpTRXq5mTuHNO-37" value="repartir_carta(tapada : bool)-&amp;gt;carta" style="text;strokeColor=none;fillColor=none;align=left;verticalAlign=middle;spacingLeft=4;spacingRight=4;overflow=hidden;points=[[0,0.5],[1,0.5]];portConstraint=eastwest;rotatable=0;whiteSpace=wrap;html=1;" parent="t-qBr2brpTRXq5mTuHNO-26" vertex="1">
          <mxGeometry y="60" width="140" height="30" as="geometry" />
        </mxCell>
        <mxCell id="t-qBr2brpTRXq5mTuHNO-48" style="edgeStyle=orthogonalEdgeStyle;rounded=0;orthogonalLoop=1;jettySize=auto;html=1;entryX=0.5;entryY=0;entryDx=0;entryDy=0;endArrow=open;endFill=0;" parent="1" source="t-qBr2brpTRXq5mTuHNO-43" target="t-qBr2brpTRXq5mTuHNO-3" edge="1">
          <mxGeometry relative="1" as="geometry" />
        </mxCell>
        <mxCell id="t-qBr2brpTRXq5mTuHNO-49" style="edgeStyle=orthogonalEdgeStyle;rounded=0;orthogonalLoop=1;jettySize=auto;html=1;endArrow=open;endFill=0;entryX=0.433;entryY=1.1;entryDx=0;entryDy=0;entryPerimeter=0;exitX=1;exitY=-0.1;exitDx=0;exitDy=0;exitPerimeter=0;" parent="1" source="t-qBr2brpTRXq5mTuHNO-37" target="t-qBr2brpTRXq5mTuHNO-46" edge="1">
          <mxGeometry relative="1" as="geometry">
            <mxPoint x="720" y="380" as="targetPoint" />
            <Array as="points">
              <mxPoint x="722" y="507" />
            </Array>
          </mxGeometry>
        </mxCell>
        <mxCell id="t-qBr2brpTRXq5mTuHNO-50" style="edgeStyle=orthogonalEdgeStyle;rounded=0;orthogonalLoop=1;jettySize=auto;html=1;endArrow=open;endFill=0;exitX=1.018;exitY=-0.133;exitDx=0;exitDy=0;exitPerimeter=0;" parent="1" source="Q7EOQcDBemOvYrqtxiTg-18" edge="1">
          <mxGeometry relative="1" as="geometry">
            <mxPoint x="360" y="480" as="targetPoint" />
            <Array as="points">
              <mxPoint x="243" y="329" />
              <mxPoint x="250" y="329" />
              <mxPoint x="250" y="480" />
            </Array>
          </mxGeometry>
        </mxCell>
        <mxCell id="t-qBr2brpTRXq5mTuHNO-52" style="edgeStyle=orthogonalEdgeStyle;rounded=0;orthogonalLoop=1;jettySize=auto;html=1;exitX=1;exitY=0.5;exitDx=0;exitDy=0;entryX=0;entryY=0.5;entryDx=0;entryDy=0;endArrow=open;endFill=0;" parent="1" source="t-qBr2brpTRXq5mTuHNO-17" target="t-qBr2brpTRXq5mTuHNO-22" edge="1">
          <mxGeometry relative="1" as="geometry" />
        </mxCell>
        <mxCell id="t-qBr2brpTRXq5mTuHNO-53" style="edgeStyle=orthogonalEdgeStyle;rounded=0;orthogonalLoop=1;jettySize=auto;html=1;entryX=0;entryY=0.5;entryDx=0;entryDy=0;endArrow=open;endFill=0;" parent="1" source="t-qBr2brpTRXq5mTuHNO-12" target="t-qBr2brpTRXq5mTuHNO-9" edge="1">
          <mxGeometry relative="1" as="geometry" />
        </mxCell>
        <mxCell id="t-qBr2brpTRXq5mTuHNO-55" style="edgeStyle=orthogonalEdgeStyle;rounded=0;orthogonalLoop=1;jettySize=auto;html=1;endArrow=open;endFill=0;exitX=1;exitY=0.5;exitDx=0;exitDy=0;entryX=0.579;entryY=1.133;entryDx=0;entryDy=0;entryPerimeter=0;" parent="1" source="t-qBr2brpTRXq5mTuHNO-10" target="Q7EOQcDBemOvYrqtxiTg-21" edge="1">
          <mxGeometry relative="1" as="geometry">
            <mxPoint x="590" y="150" as="targetPoint" />
            <Array as="points">
              <mxPoint x="590" y="335" />
              <mxPoint x="590" y="200" />
              <mxPoint x="591" y="200" />
            </Array>
          </mxGeometry>
        </mxCell>
        <mxCell id="t-qBr2brpTRXq5mTuHNO-58" value="mano" style="text;strokeColor=none;align=center;fillColor=none;html=1;verticalAlign=middle;whiteSpace=wrap;rounded=0;" parent="1" vertex="1">
          <mxGeometry x="460" y="60" width="60" height="30" as="geometry" />
        </mxCell>
        <mxCell id="t-qBr2brpTRXq5mTuHNO-59" value="mano" style="text;strokeColor=none;align=center;fillColor=none;html=1;verticalAlign=middle;whiteSpace=wrap;rounded=0;" parent="1" vertex="1">
          <mxGeometry x="540" y="230" width="60" height="30" as="geometry" />
        </mxCell>
        <mxCell id="t-qBr2brpTRXq5mTuHNO-62" value="baraja" style="text;strokeColor=none;align=center;fillColor=none;html=1;verticalAlign=middle;whiteSpace=wrap;rounded=0;" parent="1" vertex="1">
          <mxGeometry x="270" y="450" width="60" height="30" as="geometry" />
        </mxCell>
        <mxCell id="t-qBr2brpTRXq5mTuHNO-63" value="jugador" style="text;strokeColor=none;align=center;fillColor=none;html=1;verticalAlign=middle;whiteSpace=wrap;rounded=0;" parent="1" vertex="1">
          <mxGeometry x="300" y="250" width="60" height="30" as="geometry" />
        </mxCell>
        <mxCell id="Q7EOQcDBemOvYrqtxiTg-1" value="Cupier" style="text;strokeColor=none;align=center;fillColor=none;html=1;verticalAlign=middle;whiteSpace=wrap;rounded=0;" vertex="1" parent="1">
          <mxGeometry x="125" y="20" width="60" height="30" as="geometry" />
        </mxCell>
        <mxCell id="Q7EOQcDBemOvYrqtxiTg-2" value="cartas" style="text;whiteSpace=wrap;" vertex="1" parent="1">
          <mxGeometry x="690" y="110" width="40" height="40" as="geometry" />
        </mxCell>
        <mxCell id="Q7EOQcDBemOvYrqtxiTg-3" value="cartas" style="text;whiteSpace=wrap;" vertex="1" parent="1">
          <mxGeometry x="680" y="310" width="40" height="40" as="geometry" />
        </mxCell>
        <mxCell id="Q7EOQcDBemOvYrqtxiTg-4" value="0..*" style="text;html=1;align=center;verticalAlign=middle;resizable=0;points=[];autosize=1;strokeColor=none;fillColor=none;" vertex="1" parent="1">
          <mxGeometry x="730" y="320" width="40" height="30" as="geometry" />
        </mxCell>
        <mxCell id="Q7EOQcDBemOvYrqtxiTg-7" value="*" style="text;html=1;align=center;verticalAlign=middle;resizable=0;points=[];autosize=1;strokeColor=none;fillColor=none;" vertex="1" parent="1">
          <mxGeometry x="730" y="110" width="30" height="30" as="geometry" />
        </mxCell>
      </root>
    </mxGraphModel>
  </diagram>
</mxfile>
